<svg height="24" viewBox="0 0 24 24" width="24" xmlns="http://www.w3.org/2000/svg"><path d="m13 19.9506248v1.0493752h2v2h-6v-2h2v-1.0495516c-2.28682926-.2276419-4.40272013-1.2311911-6.02713395-2.8357165l1.40547617-1.4228973c1.48824401 1.4700228 3.48745438 2.3081654 5.62165778 2.3081654 4.418278 0 8-3.581722 8-8 0-2.10029545-.8115354-4.07026744-2.2402102-5.55202419l1.4397673-1.38818953c1.7845697 1.85087482 2.8004429 4.31686925 2.8004429 6.94021372 0 5.1853481-3.9466773 9.4489003-9 9.9506248zm-1-16.9506248c3.8659932 0 7 3.13400675 7 7 0 3.8659932-3.1340068 7-7 7-3.86599325 0-7-3.1340068-7-7 0-3.86599325 3.13400675-7 7-7zm0 2c-2.76142375 0-5 2.23857625-5 5 0 2.7614237 2.23857625 5 5 5 2.7614237 0 5-2.2385763 5-5 0-2.76142375-2.2385763-5-5-5z" fill-rule="evenodd"/></svg>